# xmcd CD database file
#
# Track frame offsets:
#	150
#	13543
#	26136
#	40737
#	59862
#	83142
#	94341
#	108011
#	124239
#	136599
#	161624
#	182730
#	194847
#	207747
#	220689
#	246432
#	262137
#	283373
#	308021
#	330424
#
# Disc length: 4706 seconds
#
# Revision: 1
# Processed by: cddbd v1.5.1PL0 Copyright (c) Steve Scherf et al.
# Submitted via: CDex 1.51
#
DISCID=32126014
DTITLE=John Lee Hooker - John Lee Hooker Story
DYEAR=2002
DGENRE=Blues
TTITLE0=Ground hog Blues
TTITLE1=Leave My Wife Alone
TTITLE2=Sugar Mama
TTITLE3=Shake It Baby
TTITLE4=It Serves You Right To Suffer
TTITLE5=Bottle Up And Go
TTITLE6=One Bourbon, One Scotch, One Beer
TTITLE7=Peace Lovin' Man
TTITLE8=In The Mood
TTITLE9=I'm Bad Like Jesse James
TTITLE10=I'll Never Get Out Of These Blues Alive
TTITLE11=Boom Boom
TTITLE12=The Motor City Is Burning
TTITLE13=Mr. Lucky
TTITLE14=I Don't Wanna Go To Viet Nam 
TTITLE15=Mini Skirts
TTITLE16=The Hookers (If You Miss 'im I Got'im)
TTITLE17=We Might As Well Call It Through
TTITLE18=Boogie Everywhere I Go
TTITLE19=You Shook Me (avec B.B.King)
EXTD=YEAR: 2002
EXTT0=
EXTT1=
EXTT2=
EXTT3=
EXTT4=
EXTT5=
EXTT6=
EXTT7=
EXTT8=
EXTT9=
EXTT10=
EXTT11=
EXTT12=
EXTT13=
EXTT14=
EXTT15=
EXTT16=
EXTT17=
EXTT18=
EXTT19=
PLAYORDER=
